<?xml version="1.0" encoding="UTF-8" standalone="no"?>
<svg width="314px" height="676px" viewBox="0 0 314 676" version="1.1" xmlns="http://www.w3.org/2000/svg" xmlns:xlink="http://www.w3.org/1999/xlink" xmlns:sketch="http://www.bohemiancoding.com/sketch/ns">
    <!-- Generator: Sketch 3.1.1 (8761) - http://www.bohemiancoding.com/sketch -->
    <title>floral1</title>
    <desc>Created with Sketch.</desc>
    <defs></defs>
    <g id="Page-1" stroke="none" stroke-width="1" fill="none" fill-rule="evenodd" sketch:type="MSPage">
        <g id="team" sketch:type="MSArtboardGroup" transform="translate(0.000000, 6.000000)" fill="#2B5300">
            <g id="Group" sketch:type="MSLayerGroup" transform="translate(-115.000000, -6.000000)">
                <path d="M24.6621622,224.149761 C25.4287325,224.263034 36.6190779,236.146191 45.8995833,248.896019 C52.5142155,257.989492 65.8172391,262.552034 73.564604,264.530365 C78.037581,268.102424 82.2339606,270.697173 84.0647727,271.79566 C84.0305273,277.361856 84.2307312,283.036056 84.8102689,288.949975 C81.8704324,282.627746 76.0697872,273.231333 69.7897064,270.7762 C51.7344739,261.661653 38.4472558,271.105483 36.2344757,274.867209 C36.7534253,274.429922 54.6532363,279.7564 65.5564472,282.332708 C74.8553924,283.57608 82.3472338,289.914115 85.2791676,293.083132 C86.5778588,304.207621 88.4034024,314.668276 90.1788951,324.839162 C84.8366115,321.459403 71.5441249,314.083469 57.9197213,312.537158 C51.8082332,309.436631 46.8426492,307.11848 46.8426492,307.11848 C47.1297837,307.208045 48.7024382,309.183742 50.9494638,312.305342 C28.3791061,313.580325 34.5459137,336.906716 35.333558,335.505289 C39.1084556,333.611254 45.925926,329.480731 59.6741399,326.733196 C61.665642,328.922268 63.061801,331.319446 64.3947376,333.777213 C70.8276057,345.599781 88.8485927,352.488377 94.4068858,354.36924 C95.2788265,363.842046 95.3525859,373.501885 94.2620013,383.580572 C84.4783519,395.811451 75.4955181,409.135549 67.6085374,424.108695 C58.670486,441.062806 51.6607146,458.64914 46.3948246,475.832431 C42.6936864,487.886815 35.7234288,506.268696 39.3350022,513.976547 C43.7105115,507.451479 44.3190261,499.91749 46.1261299,493.321297 C48.2098312,485.655595 50.6122783,477.900327 53.4045961,470.118717 C58.6994629,455.322066 65.3404377,441.51063 72.8085708,427.127559 C73.1589276,426.458457 73.5777753,425.820965 73.9413035,425.138691 C76.8600659,425.623396 80.9932231,426.147614 85.6769411,426.274058 C94.0697002,431.31867 109.343152,438.641919 121.892777,434.595692 C139.53443,428.90832 158.229788,426.018535 159.00953,426.605975 C159.00953,426.605975 134.260637,413.974688 122.132494,411.032218 C132.753839,402.397107 142.471632,396.159174 143.217128,396.340938 C143.217128,396.340938 108.92167,394.304653 99.8624426,397.758171 C94.2040476,399.926169 89.6098945,402.592042 85.7665061,405.400165 C101.129523,382.155436 119.919714,361.837373 139.96118,343.563497 C140.917418,344.582956 141.404756,345.275767 141.312557,345.3706 C141.694525,345.478605 141.499589,344.411729 140.880538,342.707361 C145.108529,338.853436 149.376033,335.09171 153.690954,331.419548 C161.783408,324.467731 169.957523,317.602844 178.139541,310.693174 C183.763691,310.074122 194.008336,308.419806 212.050397,310.637855 C216.022864,311.080411 225.545722,311.014554 235.079116,314.241525 C244.407039,316.931107 253.732326,322.924053 253.516317,322.802877 C253.176497,322.088992 232.24465,298.37273 207.166475,292.195386 C204.895741,291.629019 202.851554,291.352422 200.894297,291.186463 C201.950636,290.264471 202.99117,289.302966 204.026435,288.386243 C207.140133,289.389896 210.382909,289.210767 214.352742,288.481076 C217.42956,288.620692 221.80507,289.397799 226.014621,292.593159 C231.104015,295.996626 235.856224,302.613892 242.146842,308.172185 C245.073507,310.532484 251.261389,312.726824 258.43185,311.683657 C265.320445,311.059337 273.239037,307.179068 273.249574,307.165897 C272.427685,308.093157 263.50017,307.879782 256.914515,302.002743 C249.759859,297.00028 244.941794,286.315713 238.99363,286.597579 C232.945364,285.604462 227.452928,285.791494 223.040539,286.328884 C237.123304,282.211532 255.68168,274.300843 270.28603,267.730993 C274.859109,266.682557 282.719747,264.74374 296.388933,265.125708 C299.573756,265.152051 307.165699,264.31699 315.044777,266.242635 C322.726285,267.752067 330.705465,272.006401 330.502627,271.930007 C330.257641,271.47428 318.582591,260.197004 303.659496,253.843164 C312.452663,251.237878 321.427594,249.420237 330.550044,248.413949 C331.324517,248.664204 332.238606,248.911825 333.279139,249.169983 C336.906518,252.589255 348.615813,260.347157 365.343378,260.452527 C370.7963,260.481504 383.319582,254.973262 389.847284,251.899078 C394.509928,252.902732 399.198914,254.035465 403.930049,255.371036 C399.293748,254.001219 394.694326,252.82107 390.123881,251.780536 C392.460472,250.687318 393.990978,249.920747 393.990978,249.920747 C393.522079,250.310618 380.22169,247.570985 366.426059,242.93205 C372.76146,236.583478 380.22169,225.99111 380.22169,225.99111 C379.974069,226.607528 366.196879,228.925678 351.84015,228.996803 C338.439659,229.046854 331.047919,244.383528 329.696543,247.484055 C320.123634,248.448195 310.724587,250.265836 301.48623,252.950149 C298.027444,251.609309 294.447482,250.555604 290.777954,250.012946 C288.443998,249.64415 286.407714,249.604636 284.524216,249.723178 C285.920375,248.047787 287.192724,247.889731 288.546734,247.534106 C297.848314,245.092145 319.810157,223.161913 319.810157,223.161913 C319.367601,223.92058 299.634344,224.531729 279.553364,222.095037 C276.671481,221.742046 273.934483,221.910638 271.342369,222.416417 C270.565261,221.58399 269.793423,220.777906 269.008412,220.006067 C271.042063,217.377073 273.046736,214.72964 275.030336,212.055864 C275.794272,212.501054 276.265805,212.759212 276.265805,212.759212 C281.968982,213.436217 293.615055,215.617386 305.906522,209.845718 C306.933884,209.374185 308.132473,208.404776 309.415359,207.206187 C312.937367,207.179845 317.162724,207.372146 321.575113,208.470633 C329.259255,209.958991 337.233167,214.22913 337.046134,214.147468 C336.822222,213.770768 328.292481,205.491283 316.519964,199.100563 C320.845422,193.531733 324.525486,187.947097 324.525486,187.947097 C324.288403,188.571417 310.687707,191.253096 296.423178,191.661407 C295.590751,191.682481 294.787301,191.77468 293.997023,191.914296 C292.06084,191.811559 290.298519,191.911661 288.712693,192.180356 C293.691448,184.448797 298.441023,176.538108 302.77175,168.392969 C307.692551,169.997235 320.276422,173.390165 333.86658,167.518394 C340.128221,164.789299 353.186258,146.212482 353.186258,146.212482 C352.951809,146.813094 339.190423,149.136513 324.833695,149.207638 C316.298686,149.23925 310.208272,155.466645 306.546647,160.795757 C310.203003,153.440898 313.645984,145.991204 316.662214,138.317599 C318.034664,134.7271 319.341258,131.078647 320.555653,127.427559 C325.049704,130.072359 337.188384,136.547375 353.173087,134.81403 C360.433113,134.01058 379.415606,120.82083 379.415606,120.82083 C378.975684,121.308168 364.060492,119.798736 349.211157,116.131843 C335.007215,112.617738 322.607743,124.993501 320.687366,127.035054 C326.329956,110.107286 330.01002,92.6210541 329.786108,75.7670452 C329.686006,55.4595186 327.799874,34.5829914 318.756452,18.9433773 C327.568059,34.7805611 329.151251,55.6834309 328.987926,75.9514435 C328.977389,92.2206463 325.378987,108.887623 319.891819,125.106774 C320.276422,119.885667 319.741666,109.569897 311.056504,96.4512712 C306.517671,89.6206296 282.83302,71.7129158 282.83302,71.7129158 C283.417826,72.03693 287.169015,80.729995 290.5277,91.1432331 C281.176069,86.0248618 259.303791,79.0098218 259.303791,79.0098218 C260.072995,79.1204609 271.260707,91.0036172 280.533309,103.769251 C287.145307,112.854821 300.458868,117.435803 308.208867,119.414134 C313.282456,123.434018 317.916123,126.19209 319.259596,126.974466 C318.003053,130.617651 316.656945,134.252932 315.223907,137.840797 C312.729261,143.991799 309.942211,150.00582 307.028717,155.940812 C307.026083,153.290745 306.601967,150.150704 305.535091,146.412686 C303.633154,139.790151 286.239121,114.730416 286.239121,114.730416 C286.823927,115.415324 287.224335,126.821679 285.164342,136.681722 C283.288747,145.719875 297.61123,163.630223 301.00416,167.702793 C296.241414,176.387955 291.059821,184.809691 285.567384,192.991709 C279.982748,194.98848 277.261556,199.327109 276.062966,203.167863 C275.254248,197.641182 273.033565,190.420669 267.380438,182.020007 C262.796822,175.197268 239.014704,157.439708 239.014704,157.439708 C239.74176,157.855921 245.819003,171.843853 249.538581,185.802808 C252.475783,196.840366 266.366248,206.658261 272.870241,210.751904 C270.981475,213.243916 269.063732,215.717488 267.103841,218.159449 C258.679471,210.24876 250.405253,205.454403 250.033822,205.364838 C249.912646,205.204148 256.197996,211.739752 259.75425,218.796941 C260.763172,220.548725 261.60877,222.33212 262.301581,224.094442 C261.379589,225.214003 260.420718,226.323027 259.475018,227.445223 C251.946297,232.439784 246.809486,239.39687 245.049799,241.983716 C242.950292,233.783258 236.11965,217.187406 226.654746,212.279776 C203.201911,197.214431 182.736328,207.17721 178.8745,211.692336 C179.699024,211.197094 203.660272,221.29949 218.433214,226.589088 C231.775752,229.98992 241.232753,240.318862 244.301668,244.678566 C238.782889,250.610924 233.032295,256.327273 227.17633,261.951422 C227.413414,252.433833 226.217459,239.831523 226.217459,239.831523 C226.425565,240.574385 204.442648,250.473942 205.946812,264.24323 C206.768702,271.790391 206.787141,277.122138 206.513178,280.883864 C202.530174,284.382164 198.515558,287.862024 194.464063,291.286565 C188.581756,292.118992 184.635631,294.858625 182.014541,298.082961 C182.025078,292.954053 180.186363,285.111855 171.827849,274.545829 C166.145746,267.35166 134.861249,245.426696 134.861249,245.426696 C135.685773,245.887692 140.669797,255.539628 144.521088,266.353274 C140.524912,266.211024 128.167589,264.675249 115.752312,261.598431 C100.273387,257.778751 86.9466555,272.817754 86.9466555,272.817754 C88.8038103,273.913607 92.1440546,275.72071 96.5327353,277.317073 C91.3695816,281.265832 88.0425085,287.011158 86.509368,290.077439 C83.695976,266.524501 85.8481682,245.616363 92.4285549,226.863051 C93.1240001,227.363561 93.5428478,227.666501 93.5428478,227.666501 C98.3951586,230.819713 109.538087,237.529178 125.169799,237.626646 C132.706423,237.674063 153.817399,227.086963 153.817399,227.086963 C153.314255,227.505811 138.233104,224.40265 123.499676,219.189446 C110.928978,214.750714 98.2002232,222.674574 94.0301863,225.672365 C94.2751727,224.536998 94.4674738,223.090788 94.5939184,221.444374 C98.5821912,211.655456 103.700562,202.422367 110.186116,193.803062 C103.827007,201.887612 98.7402469,210.591214 94.6676777,219.795326 C94.7888538,214.273912 93.6640239,206.566062 88.6088749,197.061644 C84.8576856,189.964942 62.8642313,170.089434 62.8642313,170.089434 C63.5517737,170.558333 67.8825006,184.738566 69.8107805,198.568442 C71.4782684,210.541163 86.7174747,222.658769 91.846383,226.433666 C87.9397723,236.954909 85.5004456,248.221648 84.5020602,260.239152 C83.4483554,255.097072 81.1723529,248.782746 76.4227784,241.601748 C71.9023846,234.757935 48.1913914,216.860758 48.1913914,216.860758 C48.7682948,217.168967 52.5379238,225.854129 55.886071,236.288441 C46.5476118,231.15163 24.6621622,224.149761 24.6621622,224.149761 Z M215.203609,284.276794 C219.107585,281.631995 223.145909,277.540985 225.975107,271.094946 C226.364977,270.18876 226.633672,268.829481 226.825973,267.227849 C233.408994,260.797616 239.894548,254.182983 246.161457,247.212726 C246.906953,246.409276 247.631375,245.534701 248.387409,244.691737 C253.226548,246.593674 260.512917,248.780112 269.337695,249.320136 C270.014701,252.876389 270.380863,255.834666 270.594238,258.271358 C269.308718,260.858204 268.813477,263.47666 268.697569,265.365426 C251.498472,272.991615 235.840418,280.507165 215.203609,284.276794 L215.203609,284.276794 Z M151.454466,327.059845 C148.907134,329.196231 146.436197,331.348423 143.928379,333.490078 C142.516415,333.821995 140.142944,334.25138 137.026612,334.641251 C134.255369,329.820551 130.427786,324.641592 126.294629,322.16802 C132.898724,316.182976 141.699793,303.678134 141.699793,303.678134 C141.452173,304.291917 127.685519,306.617971 113.339328,306.678559 C102.256987,306.723341 95.2761923,317.220876 92.4259207,322.621113 C90.1235756,309.36814 87.8976241,297.938077 86.9387527,292.682724 C92.4364577,294.360749 104.256392,296.976571 116.969341,291.465695 C121.321142,289.579563 128.947331,280.014558 133.209567,274.371968 C138.109294,271.540136 142.719253,268.489661 144.80032,267.085599 C145.479959,269.058661 146.138525,271.052798 146.712794,273.052203 C150.082015,284.70091 172.431095,298.683573 179.172172,302.685017 C178.858695,303.406805 178.582097,304.104885 178.347648,304.80033 C169.28842,312.292171 160.252901,319.70235 151.454466,327.059845 L151.454466,327.059845 Z M98.972062,377.974863 C99.0458213,372.084652 98.4531124,364.36363 97.4389214,355.93926 C102.125274,357.232683 109.891078,358.531374 118.694782,356.605728 C111.843067,363.410027 105.257411,370.509364 98.972062,377.974863 L98.972062,377.974863 Z M96.7935272,350.720787 C95.7345539,342.73107 94.4174228,334.351482 93.0871204,326.41445 C95.3657572,327.07565 98.5479458,327.778998 102.251718,328.100378 C108.060266,329.662496 114.959399,331.569701 120.251631,332.813073 C123.383769,333.231921 126.299897,334.225037 128.910451,335.486849 C125.177701,335.795058 121.142012,336.005799 117.014123,336.032141 C106.740501,336.05585 99.9915214,345.101906 96.7935272,350.720787 L96.7935272,350.720787 Z M93.4190375,345.628758 C91.1456693,340.009877 87.062563,332.881564 79.3257352,325.358111 C78.8805449,324.918189 78.3062758,324.449291 77.6503445,323.961952 C82.4815812,323.985661 87.5288274,325.121028 90.3501221,325.874427 C91.5223688,332.515401 92.5576338,339.07208 93.4190375,345.628758 Z" id="Bush-2" opacity="0.599999964" sketch:type="MSShapeGroup" transform="translate(214.296106, 266.459962) rotate(-6.000000) translate(-214.296106, -266.459962) "></path>
                <path d="M236.250017,377.279452 C241.653898,358.373443 241.897055,338.217894 248.817696,319.720994 C232.240467,325.996463 211.376521,327.932788 202.360984,345.178297 C187.686506,373.266113 189.237274,407.875606 176.084656,436.474346 C186.637357,403.086626 179.269511,369.802573 184.442137,335.924293 C168.812032,344.297139 148.978531,363.473419 138.223482,377.579342 C131.690533,386.137305 128.998795,396.416857 129.622843,406.942615 C129.758876,409.149211 132.195553,443.797578 128.691023,442.277766 C121.581637,439.193716 117.803342,407.138839 117.434354,399.882249 C84.5264543,434.793482 121.148035,469.517747 114.259702,508.692227 C97.9783428,496.672574 100.163361,473.910576 87.9374628,459.21413 C77.8336679,487.922089 57.9814624,519.902918 61.7376527,551.191409 C67.6091444,600.165988 146.832623,569.649435 170.651868,555.258432 C170.080533,555.232516 141.369228,553.464647 143.254975,550.534244 C148.55173,542.278021 180.898497,538.131398 189.915734,535.885928 C211.172473,530.584174 226.312862,503.442306 233.396741,484.092016 C228.096584,481.887271 202.63815,479.116068 204.068189,470.411863 C204.542601,467.507375 231.869779,473.175661 237.617141,472.499983 C248.547332,471.222675 256.967728,464.895373 263.061972,456.155995 C254.211374,456.026413 221.956429,459.591768 215.780565,451.837213 C213.127936,448.510659 296.701046,439.412154 274.356049,415.856003 C261.688046,402.483145 234.430586,416.091102 219.400723,405.283966 C233.502166,397.451662 249.280205,400.071069 264.626343,399.326898 C285.957899,398.312456 291.385586,383.875174 298.964282,366.844401 C298.889464,366.851806 275.37119,364.943249 277.913292,362.214623 C279.322926,361.527838 280.746164,360.839203 282.143895,360.156121 C289.907935,357.575588 297.724688,355.156108 305.577149,352.886572 C311.562568,341.209386 318.838593,329.950564 328.792752,321.072348 C282.383652,316.627687 250.756155,333.067936 236.250017,377.279452 L236.250017,377.279452 Z" id="Clip-6" sketch:type="MSShapeGroup" transform="translate(195.031897, 448.827047) rotate(-8.000000) translate(-195.031897, -448.827047) "></path>
                <path d="M392.997231,680.930513 C392.28108,671.799582 390.511817,663.080492 385.417752,655.656437 C383.958735,653.495307 382.27996,651.481946 380.516729,649.543838 L347.637561,657.850405 C347.616016,657.832618 347.592748,657.814831 347.573788,657.795676 C352.480844,656.338503 365.434471,652.211216 377.228123,646.129403 C371.537697,640.592831 364.982891,635.698647 358.57459,630.699109 C353.561534,626.91046 348.907845,622.838587 344.62042,618.488961 C336.252399,622.949414 330.261207,629.934264 322.070716,634.659471 C325.622169,628.934767 328.017095,622.396646 333.374869,616.953799 C320.853862,613.832166 310.452008,607.409661 302.041759,600.322193 C297.706073,607.011504 298.341215,608.085571 291.442554,614.074344 C289.510411,607.175009 291.39774,603.021041 287.460203,597.097259 C283.82257,591.6592 260.598081,589.909225 252.417932,589.18748 C253.912283,591.213839 255.884929,593.411228 258.136797,595.707814 C257.761917,604.162151 257.712795,617.65981 262.64398,620.756814 C269.188445,624.847843 274.454868,623.936597 282.469553,626.536248 C274.22994,631.247772 273.038079,630.573915 264.3443,633.094208 C271.604915,640.988936 277.774499,650.406512 279.651487,661.045923 C287.006038,657.508346 295.232724,656.53895 302.64243,654.511223 C295.734288,660.467159 286.437253,664.279751 279.822122,670.419031 C284.406867,674.555212 288.608113,678.941096 292.417243,683.587629 C297.47425,689.542197 302.376135,695.604171 308.186351,701.058648 C317.118847,692.529058 323.939085,682.79542 326.5305,678.885682 C326.557216,678.908942 326.582208,678.932202 326.601167,678.950674 L311.801577,704.239799 C313.865574,705.963778 316.03471,707.628923 318.423603,709.140141 C326.580484,714.394855 336.804809,717.135434 347.682374,719.083119 C348.640689,708.98553 349.715347,700.02084 350.01008,697.978747 C350.028178,697.993797 350.041105,698.002691 350.052308,698.016373 C350.042828,698.146356 350.02904,698.294125 350.010942,698.486363 C349.695525,701.639465 351.435488,710.33598 353.768364,720.096299 C368.528312,722.384675 383.994068,723.817904 396.816703,728.457596 C397.639716,727.046943 397.59835,724.913178 396.880475,722.276585 C396.892541,722.271796 396.904606,722.265639 396.916671,722.264955 C393.254908,711.152133 393.842651,698.370062 393.306615,686.029932 C382.853915,682.944558 373.418993,680.411951 368.96955,679.849605 C368.930769,679.803085 368.891127,679.757249 368.851484,679.716202 C372.949315,679.870813 382.478173,680.303176 392.997231,680.930513" id="Fill-6" sketch:type="MSShapeGroup" transform="translate(324.922192, 658.822538) scale(-1, 1) rotate(48.000000) translate(-324.922192, -658.822538) "></path>
                <path d="M123.269639,197.629786 C118.113511,206.272408 87.1712693,298.140022 116.066386,303.816163 C110.446827,302.89221 146.733124,273.182256 148.625163,272.391729 C194.506675,253.16528 136.56683,255.976264 139.416749,223.490438 C147.534093,233.335904 162.305506,241.658504 183.732812,248.457233 C185.113983,226.355595 211.850678,204.132569 195.147086,178.652132 C205.406431,183.944045 216.517832,188.815615 228.464869,193.276873 C216.776915,184.926184 251.855372,132.425389 267.09204,124.366632 C249.881228,129.404734 234.347161,135.278507 220.528154,142.013031 C169.680265,155.916467 140.757781,168.314091 123.269639,197.629786" id="Leaf" sketch:type="MSShapeGroup" transform="translate(185.493128, 214.091398) rotate(352.000000) translate(-185.493128, -214.091398) "></path>
                <path d="M251.714298,558.209307 C251.576442,558.352263 251.431827,558.488326 251.282715,558.619146 C248.226558,561.551733 244.588915,561.376916 226.750393,542.056265 C208.890435,522.986319 196.680547,507.388319 198.114167,506.109039 C199.613439,504.92191 219.998981,513.413402 237.6928,532.30853 C251.239867,546.949648 253.728332,553.081394 252.83879,556.30588 C257.933916,547.743131 263.481465,539.247874 269.483085,530.786071 C269.604306,530.576395 269.752464,530.36672 269.928907,530.1557 C273.864531,524.627528 277.98468,519.112795 282.310904,513.602096 C282.03075,513.727094 281.742514,513.829244 281.447544,513.912576 C277.977946,515.001276 274.938006,513.505322 273.556093,487.900729 C272.152629,462.474897 276.385917,440.389087 278.255406,439.542321 C280.176077,438.725125 285.637732,457.187313 286.49705,483.484105 C287.003482,496.449034 286.641168,503.778265 285.719892,508.002687 C286.369095,507.397854 287.244576,506.744634 288.393477,506.029587 C290.372064,503.610256 292.376242,501.18958 294.431602,498.768904 C299.611756,492.750145 304.428249,488.037824 305.135369,487.638635 C305.139409,487.62385 305.142103,487.609065 305.147491,487.59428 C304.828277,487.720623 304.506369,487.799923 304.175033,487.85503 C301.345209,488.314703 299.011042,486.860416 302.650349,463.47892 C306.305819,440.129681 314.772395,419.487406 316.306507,419.008916 C317.855435,418.53177 317.373247,437.264117 313.3393,461.255823 C311.262389,474.093065 309.632648,480.664239 308.106617,484.079529 C311.174841,481.715304 317.128112,478.434422 328.479735,473.283933 C350.747933,463.091827 368.920226,458.62816 368.999693,460.188629 C369.084547,461.704743 351.58166,474.360536 329.533006,484.058024 C307.468189,493.72191 305.380503,492.012249 305.041086,489.199104 C304.988557,488.760936 304.980476,488.322768 305.078799,487.859063 C304.269316,488.95045 299.953868,493.66277 295.088887,499.346856 C293.583059,501.145226 292.10417,502.943596 290.64279,504.741965 C294.83567,502.510804 301.552631,499.690939 312.257744,495.858986 C338.932979,486.15881 360.740539,482.947819 360.856372,484.826834 C360.981633,486.6373 339.710137,499.76083 313.138613,508.830636 C288.889134,517.060396 284.816126,515.858794 284.064559,513.01608 C280.194933,517.991838 276.485587,522.971629 272.935175,527.960829 C276.690315,526.013267 283.902932,523.815707 297.726105,520.958208 C324.2451,515.362831 345.983969,515.588636 346.021682,517.427328 C346.033804,519.22973 324.010741,529.054904 297.463461,534.11534 C272.605186,538.794058 269.239298,536.752411 268.947022,533.659699 C264.249055,540.506408 259.85414,547.37731 255.751501,554.288534 C259.328852,552.025115 267.119287,549.463311 283.853097,545.854475 C312.818052,539.424429 337.260137,538.749704 337.415029,540.740276 C337.555106,542.640796 313.402604,554.166223 284.366264,560.051919 C255.907741,565.688962 253.100814,562.846247 252.836823,559.28983 C248.732837,566.472557 244.950759,573.706358 241.475772,581.00602 C245.317114,579.311143 253.504882,578.161961 271.141112,577.709008 C301.156644,576.780254 326.475557,580.399843 326.408212,582.456275 C326.25736,584.461632 299.882482,592.474996 269.783443,592.829831 C245.927257,592.957518 239.753095,590.609422 238.379263,587.707568 C234.90697,595.472279 231.786217,603.32301 229.008922,611.278579 C233.165437,609.445263 241.921594,607.982912 260.259556,606.624054 C292.692762,603.876768 320.809174,605.060897 320.896722,607.275929 C320.922313,609.321609 292.75876,620.687091 260.24474,622.982768 C236.081462,624.377916 228.588691,622.261001 226.298971,619.404845 C223.625387,627.844281 221.338361,636.414091 219.421731,645.137126 C222.93443,642.754084 232.166041,641.466462 256.345482,640.907327 C292.772229,639.576695 324.620884,640.36701 324.569702,642.838761 C324.472725,645.051105 292.475912,658.815758 256.111122,659.864135 C227.097679,660.107412 219.73421,656.350728 217.891659,652.486518 C217.175111,656.185407 216.524562,659.911178 215.94001,663.669206 C214.776293,671.097898 213.547926,677.185206 212.831378,676.995691 C212.145809,676.803489 212.238745,670.377475 213.430746,662.93803 C214.26178,657.880283 215.224809,652.883019 216.296937,647.932798 C216.113759,648.310482 215.891522,648.661285 215.647734,648.994616 C212.786931,652.990545 208.53344,653.534895 179.767825,628.430296 C151.006252,603.292096 127.769637,583.745241 129.050533,582.671326 C130.441875,581.608164 160.757764,593.159129 189.608233,616.263746 C211.452159,633.919491 216.691577,641.467806 216.784512,645.697604 C219.115986,635.326736 221.986217,625.180328 225.392512,615.208649 C225.399246,615.165639 225.403287,615.121284 225.410021,615.078274 C225.171621,615.688483 224.802572,616.204607 224.380994,616.672345 C221.489213,620.097043 217.530691,620.200537 193.405127,598.710151 C169.237808,577.364926 151.174614,560.601645 152.532283,559.447086 C153.946521,558.347635 179.546935,567.74405 203.610542,587.993856 C222.438773,604.04881 226.207382,610.66165 225.638993,614.24226 C225.715766,614.041993 225.810049,613.845759 225.924535,613.653556 C229.427806,603.585104 233.485997,593.69407 238.099109,583.933411 C237.926707,584.182064 237.735448,584.415933 237.529373,584.637705 C234.719752,587.878266 230.957877,588.105414 209.119339,569.637849 C187.240393,551.330229 171.303944,536.424458 172.605043,535.197319 C173.947897,534.04276 197.31516,541.522527 219.106557,559.140638 C236.577119,573.475178 239.599549,579.348777 238.728109,582.608155 C242.657796,574.394428 246.986069,566.270913 251.714298,558.209307 Z M266.582433,533.178901 C269.729162,531.31433 271.498026,527.395797 260.843333,506.390697 C250.264964,485.537643 235.931944,474.01278 234.266186,475.066436 C232.676753,476.190781 238.275254,493.41739 249.188381,513.896996 C260.093474,534.615341 263.390175,535.328893 266.582433,533.178901 Z" id="Fill-3" opacity="0.600000024" sketch:type="MSShapeGroup"></path>
                <path d="M277.196144,668.613205 C276.221723,656.189322 273.814397,644.325803 266.883223,634.224358 C264.89803,631.283843 262.613826,628.54439 260.214709,625.907328 L215.478089,637.209553 C215.448775,637.185351 215.417115,637.161149 215.391318,637.135086 C222.06804,635.152403 239.693227,629.536662 255.740109,621.26152 C247.997503,613.728255 239.07879,607.069046 230.359418,600.266488 C223.538467,595.111512 217.206486,589.571169 211.372855,583.652907 C199.987015,589.721965 191.835175,599.225812 180.690888,605.655104 C185.523128,597.865859 188.781753,588.969849 196.071739,581.564108 C179.035192,577.316698 164.882042,568.577999 153.438745,558.934527 C147.539449,568.036252 148.403647,569.497666 139.017071,577.646215 C136.388126,568.258722 138.956097,562.606679 133.598537,554.54656 C128.649038,547.147336 97.0489343,544.766254 85.9187185,543.784221 C87.951988,546.541361 90.6360445,549.53121 93.7000198,552.65603 C93.1899435,564.159315 93.123106,582.524732 99.8326608,586.738632 C108.737303,592.305038 115.902995,591.065163 126.808073,594.602344 C115.596949,601.01302 113.975258,600.096145 102.146179,603.525349 C112.025242,614.26721 120.419808,627.081114 122.973707,641.557493 C132.980582,636.744134 144.174118,635.425138 154.256039,632.666137 C144.856565,640.770005 132.206674,645.95756 123.20588,654.310893 C129.444054,659.938734 135.160426,665.906331 140.343269,672.228577 C147.224022,680.330583 153.893709,688.578731 161.799305,696.000296 C173.953191,684.394618 183.233061,671.150667 186.759037,665.830933 C186.795387,665.862581 186.829392,665.89423 186.855189,665.919363 L166.718316,700.328688 C169.526667,702.674398 172.478074,704.940055 175.728491,706.996275 C186.827047,714.146035 200.738644,717.874968 215.539064,720.525062 C216.842983,706.785906 218.305202,694.588216 218.706227,691.809667 C218.730851,691.830145 218.74844,691.842246 218.763684,691.860863 C218.750785,692.037722 218.732024,692.238783 218.7074,692.500348 C218.278232,696.790576 220.645689,708.623378 223.819888,721.903632 C243.902822,725.017282 264.946106,726.967386 282.393059,733.280323 C283.512882,731.360937 283.456598,728.457656 282.479831,724.870209 C282.496247,724.863694 282.512663,724.855316 282.52908,724.854385 C277.546749,709.733867 278.346454,692.342106 277.617104,675.551665 C263.394771,671.35359 250.557265,667.907631 244.503187,667.142483 C244.450421,667.079186 244.396482,667.01682 244.342543,666.960969 C249.918204,667.171338 262.883522,667.759628 277.196144,668.613205" id="Fill-6" sketch:type="MSShapeGroup" transform="translate(184.570713, 638.532272) rotate(84.000000) translate(-184.570713, -638.532272) "></path>
            </g>
        </g>
    </g>
</svg>