<?xml version="1.0" encoding="UTF-8" standalone="no"?>
<svg width="324px" height="676px" viewBox="0 0 324 676" version="1.1" xmlns="http://www.w3.org/2000/svg" xmlns:xlink="http://www.w3.org/1999/xlink" xmlns:sketch="http://www.bohemiancoding.com/sketch/ns">
    <!-- Generator: Sketch 3.1.1 (8761) - http://www.bohemiancoding.com/sketch -->
    <title>floral2</title>
    <desc>Created with Sketch.</desc>
    <defs></defs>
    <g id="Page-1" stroke="none" stroke-width="1" fill="none" fill-rule="evenodd" sketch:type="MSPage">
        <g id="team" sketch:type="MSArtboardGroup" transform="translate(-1028.000000, 6.000000)" fill="#2B5300">
            <g id="Group" sketch:type="MSLayerGroup" transform="translate(1028.000000, 85.000000)">
                <path d="M24.6621622,343.149761 C25.4287325,343.263034 36.6190779,355.146191 45.8995833,367.896019 C52.5142155,376.989492 65.8172391,381.552034 73.564604,383.530365 C78.037581,387.102424 82.2339606,389.697173 84.0647727,390.79566 C84.0305273,396.361856 84.2307312,402.036056 84.8102689,407.949975 C81.8704324,401.627746 76.0697872,392.231333 69.7897064,389.7762 C51.7344739,380.661653 38.4472558,390.105483 36.2344757,393.867209 C36.7534253,393.429922 54.6532363,398.7564 65.5564472,401.332708 C74.8553924,402.57608 82.3472338,408.914115 85.2791676,412.083132 C86.5778588,423.207621 88.4034024,433.668276 90.1788951,443.839162 C84.8366115,440.459403 71.5441249,433.083469 57.9197213,431.537158 C51.8082332,428.436631 46.8426492,426.11848 46.8426492,426.11848 C47.1297837,426.208045 48.7024382,428.183742 50.9494638,431.305342 C28.3791061,432.580325 34.5459137,455.906716 35.333558,454.505289 C39.1084556,452.611254 45.925926,448.480731 59.6741399,445.733196 C61.665642,447.922268 63.061801,450.319446 64.3947376,452.777213 C70.8276057,464.599781 88.8485927,471.488377 94.4068858,473.36924 C95.2788265,482.842046 95.3525859,492.501885 94.2620013,502.580572 C84.4783519,514.811451 75.4955181,528.135549 67.6085374,543.108695 C58.670486,560.062806 51.6607146,577.64914 46.3948246,594.832431 C42.6936864,606.886815 35.7234288,625.268696 39.3350022,632.976547 C43.7105115,626.451479 44.3190261,618.91749 46.1261299,612.321297 C48.2098312,604.655595 50.6122783,596.900327 53.4045961,589.118717 C58.6994629,574.322066 65.3404377,560.51063 72.8085708,546.127559 C73.1589276,545.458457 73.5777753,544.820965 73.9413035,544.138691 C76.8600659,544.623396 80.9932231,545.147614 85.6769411,545.274058 C94.0697002,550.31867 109.343152,557.641919 121.892777,553.595692 C139.53443,547.90832 158.229788,545.018535 159.00953,545.605975 C159.00953,545.605975 134.260637,532.974688 122.132494,530.032218 C132.753839,521.397107 142.471632,515.159174 143.217128,515.340938 C143.217128,515.340938 108.92167,513.304653 99.8624426,516.758171 C94.2040476,518.926169 89.6098945,521.592042 85.7665061,524.400165 C101.129523,501.155436 119.919714,480.837373 139.96118,462.563497 C140.917418,463.582956 141.404756,464.275767 141.312557,464.3706 C141.694525,464.478605 141.499589,463.411729 140.880538,461.707361 C145.108529,457.853436 149.376033,454.09171 153.690954,450.419548 C161.783408,443.467731 169.957523,436.602844 178.139541,429.693174 C183.763691,429.074122 194.008336,427.419806 212.050397,429.637855 C216.022864,430.080411 225.545722,430.014554 235.079116,433.241525 C244.407039,435.931107 253.732326,441.924053 253.516317,441.802877 C253.176497,441.088992 232.24465,417.37273 207.166475,411.195386 C204.895741,410.629019 202.851554,410.352422 200.894297,410.186463 C201.950636,409.264471 202.99117,408.302966 204.026435,407.386243 C207.140133,408.389896 210.382909,408.210767 214.352742,407.481076 C217.42956,407.620692 221.80507,408.397799 226.014621,411.593159 C231.104015,414.996626 235.856224,421.613892 242.146842,427.172185 C245.073507,429.532484 251.261389,431.726824 258.43185,430.683657 C265.320445,430.059337 273.239037,426.179068 273.249574,426.165897 C272.427685,427.093157 263.50017,426.879782 256.914515,421.002743 C249.759859,416.00028 244.941794,405.315713 238.99363,405.597579 C232.945364,404.604462 227.452928,404.791494 223.040539,405.328884 C237.123304,401.211532 255.68168,393.300843 270.28603,386.730993 C274.859109,385.682557 282.719747,383.74374 296.388933,384.125708 C299.573756,384.152051 307.165699,383.31699 315.044777,385.242635 C322.726285,386.752067 330.705465,391.006401 330.502627,390.930007 C330.257641,390.47428 318.582591,379.197004 303.659496,372.843164 C312.452663,370.237878 321.427594,368.420237 330.550044,367.413949 C331.324517,367.664204 332.238606,367.911825 333.279139,368.169983 C336.906518,371.589255 348.615813,379.347157 365.343378,379.452527 C370.7963,379.481504 383.319582,373.973262 389.847284,370.899078 C394.509928,371.902732 399.198914,373.035465 403.930049,374.371036 C399.293748,373.001219 394.694326,371.82107 390.123881,370.780536 C392.460472,369.687318 393.990978,368.920747 393.990978,368.920747 C393.522079,369.310618 380.22169,366.570985 366.426059,361.93205 C372.76146,355.583478 380.22169,344.99111 380.22169,344.99111 C379.974069,345.607528 366.196879,347.925678 351.84015,347.996803 C338.439659,348.046854 331.047919,363.383528 329.696543,366.484055 C320.123634,367.448195 310.724587,369.265836 301.48623,371.950149 C298.027444,370.609309 294.447482,369.555604 290.777954,369.012946 C288.443998,368.64415 286.407714,368.604636 284.524216,368.723178 C285.920375,367.047787 287.192724,366.889731 288.546734,366.534106 C297.848314,364.092145 319.810157,342.161913 319.810157,342.161913 C319.367601,342.92058 299.634344,343.531729 279.553364,341.095037 C276.671481,340.742046 273.934483,340.910638 271.342369,341.416417 C270.565261,340.58399 269.793423,339.777906 269.008412,339.006067 C271.042063,336.377073 273.046736,333.72964 275.030336,331.055864 C275.794272,331.501054 276.265805,331.759212 276.265805,331.759212 C281.968982,332.436217 293.615055,334.617386 305.906522,328.845718 C306.933884,328.374185 308.132473,327.404776 309.415359,326.206187 C312.937367,326.179845 317.162724,326.372146 321.575113,327.470633 C329.259255,328.958991 337.233167,333.22913 337.046134,333.147468 C336.822222,332.770768 328.292481,324.491283 316.519964,318.100563 C320.845422,312.531733 324.525486,306.947097 324.525486,306.947097 C324.288403,307.571417 310.687707,310.253096 296.423178,310.661407 C295.590751,310.682481 294.787301,310.77468 293.997023,310.914296 C292.06084,310.811559 290.298519,310.911661 288.712693,311.180356 C293.691448,303.448797 298.441023,295.538108 302.77175,287.392969 C307.692551,288.997235 320.276422,292.390165 333.86658,286.518394 C340.128221,283.789299 353.186258,265.212482 353.186258,265.212482 C352.951809,265.813094 339.190423,268.136513 324.833695,268.207638 C316.298686,268.23925 310.208272,274.466645 306.546647,279.795757 C310.203003,272.440898 313.645984,264.991204 316.662214,257.317599 C318.034664,253.7271 319.341258,250.078647 320.555653,246.427559 C325.049704,249.072359 337.188384,255.547375 353.173087,253.81403 C360.433113,253.01058 379.415606,239.82083 379.415606,239.82083 C378.975684,240.308168 364.060492,238.798736 349.211157,235.131843 C335.007215,231.617738 322.607743,243.993501 320.687366,246.035054 C326.329956,229.107286 330.01002,211.621054 329.786108,194.767045 C329.686006,174.459519 327.799874,153.582991 318.756452,137.943377 C327.568059,153.780561 329.151251,174.683431 328.987926,194.951444 C328.977389,211.220646 325.378987,227.887623 319.891819,244.106774 C320.276422,238.885667 319.741666,228.569897 311.056504,215.451271 C306.517671,208.62063 282.83302,190.712916 282.83302,190.712916 C283.417826,191.03693 287.169015,199.729995 290.5277,210.143233 C281.176069,205.024862 259.303791,198.009822 259.303791,198.009822 C260.072995,198.120461 271.260707,210.003617 280.533309,222.769251 C287.145307,231.854821 300.458868,236.435803 308.208867,238.414134 C313.282456,242.434018 317.916123,245.19209 319.259596,245.974466 C318.003053,249.617651 316.656945,253.252932 315.223907,256.840797 C312.729261,262.991799 309.942211,269.00582 307.028717,274.940812 C307.026083,272.290745 306.601967,269.150704 305.535091,265.412686 C303.633154,258.790151 286.239121,233.730416 286.239121,233.730416 C286.823927,234.415324 287.224335,245.821679 285.164342,255.681722 C283.288747,264.719875 297.61123,282.630223 301.00416,286.702793 C296.241414,295.387955 291.059821,303.809691 285.567384,311.991709 C279.982748,313.98848 277.261556,318.327109 276.062966,322.167863 C275.254248,316.641182 273.033565,309.420669 267.380438,301.020007 C262.796822,294.197268 239.014704,276.439708 239.014704,276.439708 C239.74176,276.855921 245.819003,290.843853 249.538581,304.802808 C252.475783,315.840366 266.366248,325.658261 272.870241,329.751904 C270.981475,332.243916 269.063732,334.717488 267.103841,337.159449 C258.679471,329.24876 250.405253,324.454403 250.033822,324.364838 C249.912646,324.204148 256.197996,330.739752 259.75425,337.796941 C260.763172,339.548725 261.60877,341.33212 262.301581,343.094442 C261.379589,344.214003 260.420718,345.323027 259.475018,346.445223 C251.946297,351.439784 246.809486,358.39687 245.049799,360.983716 C242.950292,352.783258 236.11965,336.187406 226.654746,331.279776 C203.201911,316.214431 182.736328,326.17721 178.8745,330.692336 C179.699024,330.197094 203.660272,340.29949 218.433214,345.589088 C231.775752,348.98992 241.232753,359.318862 244.301668,363.678566 C238.782889,369.610924 233.032295,375.327273 227.17633,380.951422 C227.413414,371.433833 226.217459,358.831523 226.217459,358.831523 C226.425565,359.574385 204.442648,369.473942 205.946812,383.24323 C206.768702,390.790391 206.787141,396.122138 206.513178,399.883864 C202.530174,403.382164 198.515558,406.862024 194.464063,410.286565 C188.581756,411.118992 184.635631,413.858625 182.014541,417.082961 C182.025078,411.954053 180.186363,404.111855 171.827849,393.545829 C166.145746,386.35166 134.861249,364.426696 134.861249,364.426696 C135.685773,364.887692 140.669797,374.539628 144.521088,385.353274 C140.524912,385.211024 128.167589,383.675249 115.752312,380.598431 C100.273387,376.778751 86.9466555,391.817754 86.9466555,391.817754 C88.8038103,392.913607 92.1440546,394.72071 96.5327353,396.317073 C91.3695816,400.265832 88.0425085,406.011158 86.509368,409.077439 C83.695976,385.524501 85.8481682,364.616363 92.4285549,345.863051 C93.1240001,346.363561 93.5428478,346.666501 93.5428478,346.666501 C98.3951586,349.819713 109.538087,356.529178 125.169799,356.626646 C132.706423,356.674063 153.817399,346.086963 153.817399,346.086963 C153.314255,346.505811 138.233104,343.40265 123.499676,338.189446 C110.928978,333.750714 98.2002232,341.674574 94.0301863,344.672365 C94.2751727,343.536998 94.4674738,342.090788 94.5939184,340.444374 C98.5821912,330.655456 103.700562,321.422367 110.186116,312.803062 C103.827007,320.887612 98.7402469,329.591214 94.6676777,338.795326 C94.7888538,333.273912 93.6640239,325.566062 88.6088749,316.061644 C84.8576856,308.964942 62.8642313,289.089434 62.8642313,289.089434 C63.5517737,289.558333 67.8825006,303.738566 69.8107805,317.568442 C71.4782684,329.541163 86.7174747,341.658769 91.846383,345.433666 C87.9397723,355.954909 85.5004456,367.221648 84.5020602,379.239152 C83.4483554,374.097072 81.1723529,367.782746 76.4227784,360.601748 C71.9023846,353.757935 48.1913914,335.860758 48.1913914,335.860758 C48.7682948,336.168967 52.5379238,344.854129 55.886071,355.288441 C46.5476118,350.15163 24.6621622,343.149761 24.6621622,343.149761 Z M215.203609,403.276794 C219.107585,400.631995 223.145909,396.540985 225.975107,390.094946 C226.364977,389.18876 226.633672,387.829481 226.825973,386.227849 C233.408994,379.797616 239.894548,373.182983 246.161457,366.212726 C246.906953,365.409276 247.631375,364.534701 248.387409,363.691737 C253.226548,365.593674 260.512917,367.780112 269.337695,368.320136 C270.014701,371.876389 270.380863,374.834666 270.594238,377.271358 C269.308718,379.858204 268.813477,382.47666 268.697569,384.365426 C251.498472,391.991615 235.840418,399.507165 215.203609,403.276794 L215.203609,403.276794 Z M151.454466,446.059845 C148.907134,448.196231 146.436197,450.348423 143.928379,452.490078 C142.516415,452.821995 140.142944,453.25138 137.026612,453.641251 C134.255369,448.820551 130.427786,443.641592 126.294629,441.16802 C132.898724,435.182976 141.699793,422.678134 141.699793,422.678134 C141.452173,423.291917 127.685519,425.617971 113.339328,425.678559 C102.256987,425.723341 95.2761923,436.220876 92.4259207,441.621113 C90.1235756,428.36814 87.8976241,416.938077 86.9387527,411.682724 C92.4364577,413.360749 104.256392,415.976571 116.969341,410.465695 C121.321142,408.579563 128.947331,399.014558 133.209567,393.371968 C138.109294,390.540136 142.719253,387.489661 144.80032,386.085599 C145.479959,388.058661 146.138525,390.052798 146.712794,392.052203 C150.082015,403.70091 172.431095,417.683573 179.172172,421.685017 C178.858695,422.406805 178.582097,423.104885 178.347648,423.80033 C169.28842,431.292171 160.252901,438.70235 151.454466,446.059845 L151.454466,446.059845 Z M98.972062,496.974863 C99.0458213,491.084652 98.4531124,483.36363 97.4389214,474.93926 C102.125274,476.232683 109.891078,477.531374 118.694782,475.605728 C111.843067,482.410027 105.257411,489.509364 98.972062,496.974863 L98.972062,496.974863 Z M96.7935272,469.720787 C95.7345539,461.73107 94.4174228,453.351482 93.0871204,445.41445 C95.3657572,446.07565 98.5479458,446.778998 102.251718,447.100378 C108.060266,448.662496 114.959399,450.569701 120.251631,451.813073 C123.383769,452.231921 126.299897,453.225037 128.910451,454.486849 C125.177701,454.795058 121.142012,455.005799 117.014123,455.032141 C106.740501,455.05585 99.9915214,464.101906 96.7935272,469.720787 L96.7935272,469.720787 Z M93.4190375,464.628758 C91.1456693,459.009877 87.062563,451.881564 79.3257352,444.358111 C78.8805449,443.918189 78.3062758,443.449291 77.6503445,442.961952 C82.4815812,442.985661 87.5288274,444.121028 90.3501221,444.874427 C91.5223688,451.515401 92.5576338,458.07208 93.4190375,464.628758 Z" id="Bush-2" opacity="0.599999964" sketch:type="MSShapeGroup" transform="translate(214.296106, 385.459962) scale(-1, 1) rotate(-6.000000) translate(-214.296106, -385.459962) "></path>
                <path d="M151.774779,506.558613 C155.825284,492.387524 156.007544,477.279836 161.194943,463.415396 C148.769402,468.119204 133.130732,469.570586 126.373093,482.497039 C115.373768,503.550395 116.536154,529.492105 106.677546,550.928427 C114.587374,525.902503 109.06477,500.954282 112.941936,475.560656 C101.226317,481.836563 86.3600215,496.210235 78.2985231,506.783396 C73.4017205,513.198058 71.3841154,520.903146 71.8518735,528.792778 C71.9538371,530.446742 73.7802604,556.41759 71.1534227,555.278409 C65.8245493,552.966744 62.9925098,528.939859 62.7159335,523.500647 C38.0496603,549.668528 65.4995402,575.696266 60.3363577,605.059684 C48.1325874,596.050295 49.770378,578.988931 40.606398,567.97314 C33.0330504,589.491328 18.1527352,613.462711 20.9682056,636.915148 C25.3692102,673.624277 84.7515455,650.750449 102.605375,639.963604 C102.177127,639.944179 80.6564317,638.619065 82.0699024,636.422567 C86.0401106,630.234076 110.285784,627.125955 117.044697,625.442852 C132.977787,621.468897 144.326337,601.12458 149.636092,586.620478 C145.663335,584.967902 126.580844,582.890733 127.652737,576.366454 C128.008335,574.189382 148.491551,578.438072 152.799514,577.931615 C160.99229,576.974203 167.303838,572.231543 171.871808,565.680901 C165.2378,565.583772 141.060952,568.256201 136.431804,562.443738 C134.443514,559.950303 197.086136,553.130475 180.337337,535.47385 C170.841975,525.45016 150.411016,535.65007 139.145311,527.549529 C149.715114,521.678789 161.541619,523.642177 173.044389,523.084381 C189.033559,522.324001 193.101907,511.502467 198.782555,498.736971 C198.726475,498.742521 181.098241,497.311953 183.003686,495.266698 C184.060284,494.751916 185.127078,494.235745 186.174754,493.723738 C191.994327,491.789488 197.853412,489.975955 203.739261,488.274813 C208.225661,479.522123 213.679439,471.083019 221.140627,464.42831 C186.354465,461.096793 162.647924,473.41966 151.774779,506.558613 L151.774779,506.558613 Z" id="Clip-6" sketch:type="MSShapeGroup" transform="translate(120.879541, 560.187453) rotate(-74.000000) translate(-120.879541, -560.187453) "></path>
                <path d="M386.696144,435.113205 C385.721723,422.689322 383.314397,410.825803 376.383223,400.724358 C374.39803,397.783843 372.113826,395.04439 369.714709,392.407328 L324.978089,403.709553 C324.948775,403.685351 324.917115,403.661149 324.891318,403.635086 C331.56804,401.652403 349.193227,396.036662 365.240109,387.76152 C357.497503,380.228255 348.57879,373.569046 339.859418,366.766488 C333.038467,361.611512 326.706486,356.071169 320.872855,350.152907 C309.487015,356.221965 301.335175,365.725812 290.190888,372.155104 C295.023128,364.365859 298.281753,355.469849 305.571739,348.064108 C288.535192,343.816698 274.382042,335.077999 262.938745,325.434527 C257.039449,334.536252 257.903647,335.997666 248.517071,344.146215 C245.888126,334.758722 248.456097,329.106679 243.098537,321.04656 C238.149038,313.647336 206.548934,311.266254 195.418718,310.284221 C197.451988,313.041361 200.136044,316.03121 203.20002,319.15603 C202.689944,330.659315 202.623106,349.024732 209.332661,353.238632 C218.237303,358.805038 225.402995,357.565163 236.308073,361.102344 C225.096949,367.51302 223.475258,366.596145 211.646179,370.025349 C221.525242,380.76721 229.919808,393.581114 232.473707,408.057493 C242.480582,403.244134 253.674118,401.925138 263.756039,399.166137 C254.356565,407.270005 241.706674,412.45756 232.70588,420.810893 C238.944054,426.438734 244.660426,432.406331 249.843269,438.728577 C256.724022,446.830583 263.393709,455.078731 271.299305,462.500296 C283.453191,450.894618 292.733061,437.650667 296.259037,432.330933 C296.295387,432.362581 296.329392,432.39423 296.355189,432.419363 L276.218316,466.828688 C279.026667,469.174398 281.978074,471.440055 285.228491,473.496275 C296.327047,480.646035 310.238644,484.374968 325.039064,487.025062 C326.342983,473.285906 327.805202,461.088216 328.206227,458.309667 C328.230851,458.330145 328.24844,458.342246 328.263684,458.360863 C328.250785,458.537722 328.232024,458.738783 328.2074,459.000348 C327.778232,463.290576 330.145689,475.123378 333.319888,488.403632 C353.402822,491.517282 374.446106,493.467386 391.893059,499.780323 C393.012882,497.860937 392.956598,494.957656 391.979831,491.370209 C391.996247,491.363694 392.012663,491.355316 392.02908,491.354385 C387.046749,476.233867 387.846454,458.842106 387.117104,442.051665 C372.894771,437.85359 360.057265,434.407631 354.003187,433.642483 C353.950421,433.579186 353.896482,433.51682 353.842543,433.460969 C359.418204,433.671338 372.383522,434.259628 386.696144,435.113205" id="Fill-6" sketch:type="MSShapeGroup" transform="translate(294.070713, 405.032272) rotate(-7.000000) translate(-294.070713, -405.032272) "></path>
                <path d="M205.138781,244.490162 C199.247277,254.365411 163.891997,359.335351 196.908187,365.821034 C190.487156,364.765305 231.94867,330.818063 234.110556,329.91479 C286.535772,307.94623 220.332442,311.158122 223.588822,274.039108 C232.863876,285.288753 249.742014,294.798336 274.225322,302.566712 C275.803478,277.312899 306.353409,251.920384 287.26752,222.805881 C298.990071,228.852537 311.6862,234.418899 325.337145,239.51643 C311.982234,229.97475 352.063644,169.986196 369.473393,160.778086 C349.807944,166.534731 332.05838,173.246232 316.268481,180.941246 C258.168575,196.827615 225.121113,210.99341 205.138781,244.490162" id="Leaf" sketch:type="MSShapeGroup" transform="translate(276.236697, 263.299560) scale(-1, 1) rotate(354.000000) translate(-276.236697, -263.299560) "></path>
                <path d="M293.714298,167.209307 C293.576442,167.352263 293.431827,167.488326 293.282715,167.619146 C290.226558,170.551733 286.588915,170.376916 268.750393,151.056265 C250.890435,131.986319 238.680547,116.388319 240.114167,115.109039 C241.613439,113.92191 261.998981,122.413402 279.6928,141.30853 C293.239867,155.949648 295.728332,162.081394 294.83879,165.30588 C299.933916,156.743131 305.481465,148.247874 311.483085,139.786071 C311.604306,139.576395 311.752464,139.36672 311.928907,139.1557 C315.864531,133.627528 319.98468,128.112795 324.310904,122.602096 C324.03075,122.727094 323.742514,122.829244 323.447544,122.912576 C319.977946,124.001276 316.938006,122.505322 315.556093,96.9007289 C314.152629,71.4748972 318.385917,49.3890873 320.255406,48.5423212 C322.176077,47.7251248 327.637732,66.1873135 328.49705,92.4841045 C329.003482,105.449034 328.641168,112.778265 327.719892,117.002687 C328.369095,116.397854 329.244576,115.744634 330.393477,115.029587 C332.372064,112.610256 334.376242,110.18958 336.431602,107.768904 C341.611756,101.750145 346.428249,97.0378243 347.135369,96.6386346 C347.139409,96.6238498 347.142103,96.609065 347.147491,96.5942802 C346.828277,96.7206231 346.506369,96.7999234 346.175033,96.8550304 C343.345209,97.3147034 341.011042,95.8604163 344.650349,72.4789199 C348.305819,49.1296812 356.772395,28.4874058 358.306507,28.0089158 C359.855435,27.5317698 359.373247,46.2641172 355.3393,70.2558229 C353.262389,83.0930655 351.632648,89.6642391 350.106617,93.0795289 C353.174841,90.7153043 359.128112,87.4344217 370.479735,82.2839334 C392.747933,72.0918268 410.920226,67.6281599 410.999693,69.1886288 C411.084547,70.7047433 393.58166,83.360536 371.533006,93.0580238 C349.468189,102.72191 347.380503,101.012249 347.041086,98.1991035 C346.988557,97.7609357 346.980476,97.3227679 347.078799,96.8590626 C346.269316,97.95045 341.953868,102.66277 337.088887,108.346856 C335.583059,110.145226 334.10417,111.943596 332.64279,113.741965 C336.83567,111.510804 343.552631,108.690939 354.257744,104.858986 C380.932979,95.1588101 402.740539,91.9478193 402.856372,93.8268336 C402.981633,95.6373001 381.710137,108.76083 355.138613,117.830636 C330.889134,126.060396 326.816126,124.858794 326.064559,122.01608 C322.194933,126.991838 318.485587,131.971629 314.935175,136.960829 C318.690315,135.013267 325.902932,132.815707 339.726105,129.958208 C366.2451,124.362831 387.983969,124.588636 388.021682,126.427328 C388.033804,128.22973 366.010741,138.054904 339.463461,143.11534 C314.605186,147.794058 311.239298,145.752411 310.947022,142.659699 C306.249055,149.506408 301.85414,156.37731 297.751501,163.288534 C301.328852,161.025115 309.119287,158.463311 325.853097,154.854475 C354.818052,148.424429 379.260137,147.749704 379.415029,149.740276 C379.555106,151.640796 355.402604,163.166223 326.366264,169.051919 C297.907741,174.688962 295.100814,171.846247 294.836823,168.28983 C290.732837,175.472557 286.950759,182.706358 283.475772,190.00602 C287.317114,188.311143 295.504882,187.161961 313.141112,186.709008 C343.156644,185.780254 368.475557,189.399843 368.408212,191.456275 C368.25736,193.461632 341.882482,201.474996 311.783443,201.829831 C287.927257,201.957518 281.753095,199.609422 280.379263,196.707568 C276.90697,204.472279 273.786217,212.32301 271.008922,220.278579 C275.165437,218.445263 283.921594,216.982912 302.259556,215.624054 C334.692762,212.876768 362.809174,214.060897 362.896722,216.275929 C362.922313,218.321609 334.75876,229.687091 302.24474,231.982768 C278.081462,233.377916 270.588691,231.261001 268.298971,228.404845 C265.625387,236.844281 263.338361,245.414091 261.421731,254.137126 C264.93443,251.754084 274.166041,250.466462 298.345482,249.907327 C334.772229,248.576695 366.620884,249.36701 366.569702,251.838761 C366.472725,254.051105 334.475912,267.815758 298.111122,268.864135 C269.097679,269.107412 261.73421,265.350728 259.891659,261.486518 C259.175111,265.185407 258.524562,268.911178 257.94001,272.669206 C256.776293,280.097898 255.547926,286.185206 254.831378,285.995691 C254.145809,285.803489 254.238745,279.377475 255.430746,271.93803 C256.26178,266.880283 257.224809,261.883019 258.296937,256.932798 C258.113759,257.310482 257.891522,257.661285 257.647734,257.994616 C254.786931,261.990545 250.53344,262.534895 221.767825,237.430296 C193.006252,212.292096 169.769637,192.745241 171.050533,191.671326 C172.441875,190.608164 202.757764,202.159129 231.608233,225.263746 C253.452159,242.919491 258.691577,250.467806 258.784512,254.697604 C261.115986,244.326736 263.986217,234.180328 267.392512,224.208649 C267.399246,224.165639 267.403287,224.121284 267.410021,224.078274 C267.171621,224.688483 266.802572,225.204607 266.380994,225.672345 C263.489213,229.097043 259.530691,229.200537 235.405127,207.710151 C211.237808,186.364926 193.174614,169.601645 194.532283,168.447086 C195.946521,167.347635 221.546935,176.74405 245.610542,196.993856 C264.438773,213.04881 268.207382,219.66165 267.638993,223.24226 C267.715766,223.041993 267.810049,222.845759 267.924535,222.653556 C271.427806,212.585104 275.485997,202.69407 280.099109,192.933411 C279.926707,193.182064 279.735448,193.415933 279.529373,193.637705 C276.719752,196.878266 272.957877,197.105414 251.119339,178.637849 C229.240393,160.330229 213.303944,145.424458 214.605043,144.197319 C215.947897,143.04276 239.31516,150.522527 261.106557,168.140638 C278.577119,182.475178 281.599549,188.348777 280.728109,191.608155 C284.657796,183.394428 288.986069,175.270913 293.714298,167.209307 Z M308.582433,142.178901 C311.729162,140.31433 313.498026,136.395797 302.843333,115.390697 C292.264964,94.5376434 277.931944,83.0127804 276.266186,84.0664364 C274.676753,85.1907808 280.275254,102.41739 291.188381,122.896996 C302.093474,143.615341 305.390175,144.328893 308.582433,142.178901 Z" id="Fill-3" opacity="0.600000024" sketch:type="MSShapeGroup" transform="translate(291.000000, 157.000000) scale(-1, 1) rotate(16.000000) translate(-291.000000, -157.000000) "></path>
                <path d="M215.335934,498.094816 C212.426971,496.092141 209.828578,477.595028 211.253218,461.822305 C211.131643,461.845515 211.016699,461.856567 210.895124,461.874251 C203.979706,463.137527 197.887684,465.052889 192.449957,467.453447 C194.730044,483.233907 204.309064,504.302888 205.769072,507.395318 C207.693275,511.439351 210.978016,522.96689 203.211572,518.758178 C186.659662,509.791455 186.665188,483.53895 187.95278,469.626327 C170.133172,479.061667 160.645886,494.25304 155.625936,509.313996 C163.007761,519.990508 178.696487,526.20079 179.913344,536.690519 C181.156727,547.332769 164.458926,526.07811 154.567127,512.708154 C149.855535,528.890918 149.952795,544.377387 150.015794,551.715002 C150.131843,567.065528 180.947838,569.278197 187.331641,569.573293 C190.588751,566.672067 193.243511,563.844891 194.967668,561.730588 C215.563611,536.438527 255.127495,505.612584 277.547066,490.592522 C283.308625,486.591593 287.397972,486.40923 293.530888,482.763079 C293.71104,482.650346 293.845878,482.57298 293.845878,482.57298 C293.732039,482.630452 293.630358,482.697871 293.530888,482.763079 C292.100721,483.642841 285.310194,487.850448 275.704649,494.282881 C232.56977,524.247851 200.003092,562.562825 181.962439,586.582768 C178.504177,602.180865 182.175748,618.755985 204.052651,625.162997 C206.760462,625.944394 209.589848,626.401959 212.476707,626.720265 C210.449717,619.001346 209.954574,603.053996 208.497882,596.890134 C206.60573,588.897117 217.160667,588.986641 217.77628,595.044401 C218.26037,599.831148 219.994475,618.189002 222.039148,627.017572 C232.163046,626.4528 242.945661,623.46426 253.702855,618.746038 C243.849738,613.413308 229.959219,578.62954 234.949328,582.261322 C239.834441,585.815739 249.937339,607.299181 258.185664,616.673733 C268.695286,611.580838 279.08665,604.912991 288.730878,597.175283 C271.191999,594.922826 249.655506,577.463523 247.386471,575.681894 C244.498507,573.433858 242.662722,569.904862 249.79808,568.829474 C256.931229,567.756297 271.436254,582.593996 289.780846,590.353809 C291.70947,591.174994 293.633674,591.473406 295.531352,591.418145 C299.0924,588.248348 302.547346,584.969133 305.79893,581.568344 C306.349334,581.003572 306.845582,580.404537 307.359513,579.823187 C295.837501,580.091758 279.847047,570.313796 272.606692,562.696558 C262.636421,552.220092 281.956929,552.453295 298.333108,560.60878 C307.105311,564.995434 313.926784,563.197227 318.372015,560.587781 C320.771468,553.778465 322.118742,546.597792 322.731039,539.445855 C304.624072,542.408974 282.562595,539.214862 281.125797,537.359183 C279.122017,534.770736 287.095139,529.540792 296.565847,535.878176 C301.422223,539.12976 312.890079,538.180368 322.9554,536.491578 C323.295811,530.769807 323.191919,525.106614 322.845982,519.708675 C316.329552,522.120285 309.446186,522.732582 302.339563,523.032099 C287.46318,523.653237 298.402737,506.712287 312.207048,512.231801 C315.506157,513.544813 318.954471,513.709492 322.30221,513.235349 C320.884201,499.396776 318.138812,488.120124 317.465728,483.545581 C315.757044,471.782629 321.085353,463.17621 321.085353,463.17621 C316.29529,465.464034 303.060172,461.935038 282.761536,459.661582 C282.339339,460.478346 281.949193,461.296216 281.59773,462.100823 C276.604305,473.589678 270.743276,481.918684 269.221375,477.526504 C268.498556,475.449779 272.40333,467.362818 278.088628,459.157598 C273.525137,458.721032 268.604658,458.382832 263.416713,458.182786 C260.167339,467.827014 258.154717,477.228092 257.772308,479.162243 C257.017436,482.944337 253.36797,492.639406 250.13186,485.770407 C245.943042,476.895418 249.284149,466.683102 254.363782,458.000423 C247.596464,457.988265 240.416896,458.236942 232.778659,458.918868 C230.499676,470.849815 240.182588,484.714914 235.192479,493.38433 C230.021112,502.367632 229.812224,472.234667 229.945957,459.237174 C224.996741,459.732317 219.876215,460.414243 214.588799,461.294005 C214.757899,466.079647 215.226517,471.000127 216.223433,475.279573 C219.510384,489.397769 219.796639,501.161827 215.335934,498.094816 L215.335934,498.094816 Z M227.805128,577.020326 C231.276652,578.633961 224.302657,584.56904 222.194986,582.802884 C220.093945,581.042255 214.208601,562.091998 218.914666,561.364757 C226.53743,560.183267 224.331393,575.414428 227.805128,577.020326 L227.805128,577.020326 Z M252.421894,545.816395 C256.258144,545.797606 252.529101,554.122191 249.862184,553.428107 C247.195266,552.724077 233.67721,538.112949 237.611825,535.454873 C243.987891,531.147795 248.59117,545.8385 252.421894,545.816395 L252.421894,545.816395 Z M208.487935,537.194503 C206.565942,540.29025 194.73557,530.517815 194.092327,528.519561 C193.452399,526.505834 199.779836,523.363667 199.909147,526.290314 C200.028512,529.205908 211.60026,532.181185 208.487935,537.194503 L208.487935,537.194503 Z M226.688847,508.19882 C225.537198,510.888947 234.702862,518.492923 229.7227,521.696982 C226.647953,523.678658 220.185679,509.823507 220.476354,507.741255 C220.763714,505.652372 227.844916,505.504272 226.688847,508.19882 L226.688847,508.19882 Z" id="Leaf-2" sketch:type="MSShapeGroup" transform="translate(237.313093, 543.102635) scale(-1, 1) rotate(-27.000000) translate(-237.313093, -543.102635) "></path>
            </g>
        </g>
    </g>
</svg>